<svg width="155" height="149" viewBox="0 0 155 149" fill="none" xmlns="http://www.w3.org/2000/svg">
<rect y="6.91574" width="100.063" height="110.652" rx="35" fill="#D2716C"/>
<rect width="100.063" height="110.652" rx="35" transform="matrix(-1 0 0 1 155 6.91574)" fill="#8961A4"/>
<rect width="100.063" height="110.652" rx="35" transform="matrix(-1 0 0 1 148.133 0)" fill="#8961A4"/>
<rect x="6.86707" y="14.8195" width="100.063" height="110.652" rx="35" fill="#D2716C"/>
<path d="M30.2916 138.569C29.0528 139.648 27.1129 138.856 26.9838 137.218L24.7716 109.148C24.6546 107.664 26.1429 106.576 27.5215 107.139L50.9617 116.711C52.3403 117.274 52.6422 119.092 51.5195 120.07L30.2916 138.569Z" fill="#D2716C"/>
<path d="M130.383 129.389C131.617 130.433 133.515 129.657 133.666 128.048L136.297 99.9223C136.437 98.4269 134.94 97.3166 133.55 97.8844L109.352 107.765C107.961 108.333 107.669 110.174 108.816 111.144L130.383 129.389Z" fill="#8961A4"/>
<rect x="3" y="8.69266" width="96.8354" height="107.083" rx="35" fill="black"/>
<rect width="96.8354" height="107.083" rx="35" transform="matrix(-1 0 0 1 153 8.69266)" fill="black"/>
<rect width="96.8354" height="107.083" rx="35" transform="matrix(-1 0 0 1 146.354 2)" fill="black"/>
<rect x="9.64557" y="16.3415" width="96.8354" height="107.083" rx="35" fill="black"/>
<rect x="3" y="8.69266" width="96.8354" height="107.083" rx="35" fill="#FA8780" fill-opacity="0.6"/>
<rect width="96.8354" height="107.083" rx="35" transform="matrix(-1 0 0 1 153 8.69269)" fill="#A373C3" fill-opacity="0.6"/>
<rect width="96.8354" height="107.083" rx="35" transform="matrix(-1 0 0 1 146.354 2)" fill="#A373C3" fill-opacity="0.6"/>
<rect x="9.64557" y="16.3415" width="96.8354" height="107.083" rx="35" fill="#FA8780" fill-opacity="0.6"/>
<circle cx="51.4177" cy="62.2341" r="9.52726" fill="black" fill-opacity="0.5"/>
<circle cx="9.52726" cy="9.52726" r="9.52726" transform="matrix(-1 0 0 1 114.109 52.7068)" fill="black" fill-opacity="0.5"/>
<path d="M130.084 126.317C130.701 126.838 131.651 126.451 131.726 125.646L133.692 104.634C133.762 103.886 133.013 103.331 132.318 103.615L114.24 110.997C113.545 111.281 113.399 112.201 113.972 112.686L130.084 126.317Z" fill="#624575"/>
<path d="M129.065 123.36C129.687 123.916 130.675 123.512 130.73 122.68L132.241 99.6861C132.29 98.9488 131.549 98.4154 130.865 98.6947L112.179 106.325C111.495 106.604 111.34 107.503 111.891 107.996L129.065 123.36Z" fill="#8961A4"/>
<path d="M30.8452 134.415C30.2258 134.955 29.2559 134.558 29.1914 133.739L27.7633 115.619C27.7048 114.877 28.4489 114.333 29.1382 114.615L44.2698 120.794C44.9591 121.075 45.1101 121.984 44.5487 122.473L30.8452 134.415Z" fill="#96514D"/>
<path d="M31.9357 131.435C31.3144 131.99 30.3257 131.587 30.2711 130.755L28.7598 107.761C28.7113 107.023 29.4516 106.49 30.1357 106.769L48.8216 114.399C49.5056 114.679 49.6609 115.578 49.1103 116.07L31.9357 131.435Z" fill="#D2716C"/>
</svg>
