<svg width="175" height="175" viewBox="0 0 175 175" fill="none" xmlns="http://www.w3.org/2000/svg">
<rect width="175" height="175" rx="30" fill="#F6F6F6"/>
<rect x="10" y="24.3547" width="100.063" height="110.652" rx="35" fill="#FB9A94"/>
<rect width="100.063" height="110.652" rx="35" transform="matrix(-1 0 0 1 165 24.3547)" fill="#B289CD"/>
<rect width="100.063" height="110.652" rx="35" transform="matrix(-1 0 0 1 158.133 17.439)" fill="#B289CD"/>
<rect x="16.867" y="32.2585" width="100.063" height="110.652" rx="35" fill="#FB9A94"/>
<path d="M40.2916 156.008C39.0528 157.087 37.113 156.295 36.9839 154.657L34.7717 126.587C34.6547 125.103 36.143 124.015 37.5216 124.578L60.9617 134.15C62.3403 134.713 62.6422 136.531 61.5196 137.509L40.2916 156.008Z" fill="#FB9A94"/>
<path d="M140.383 146.828C141.617 147.872 143.515 147.096 143.666 145.487L146.297 117.361C146.437 115.866 144.94 114.756 143.55 115.323L119.352 125.204C117.961 125.772 117.669 127.613 118.816 128.583L140.383 146.828Z" fill="#B289CD"/>
<rect x="13" y="26.1316" width="96.8354" height="107.083" rx="35" fill="white"/>
<rect width="96.8354" height="107.083" rx="35" transform="matrix(-1 0 0 1 163 26.1316)" fill="white"/>
<rect width="96.8354" height="107.083" rx="35" transform="matrix(-1 0 0 1 156.354 19.439)" fill="white"/>
<rect x="19.6456" y="33.7804" width="96.8354" height="107.083" rx="35" fill="white"/>
<rect x="13" y="26.1316" width="96.8354" height="107.083" rx="35" fill="#FA8780" fill-opacity="0.6"/>
<rect width="96.8354" height="107.083" rx="35" transform="matrix(-1 0 0 1 163 26.1317)" fill="#A373C3" fill-opacity="0.6"/>
<rect width="96.8354" height="107.083" rx="35" transform="matrix(-1 0 0 1 156.354 19.439)" fill="#A373C3" fill-opacity="0.6"/>
<rect x="19.6456" y="33.7804" width="96.8354" height="107.083" rx="35" fill="#FA8780" fill-opacity="0.6"/>
<circle cx="61.4177" cy="79.673" r="9.52726" fill="white" fill-opacity="0.7"/>
<circle cx="9.52726" cy="9.52726" r="9.52726" transform="matrix(-1 0 0 1 124.109 70.1458)" fill="white" fill-opacity="0.7"/>
<path d="M140.084 143.755C140.701 144.277 141.651 143.89 141.726 143.085L143.692 122.072C143.762 121.325 143.013 120.77 142.318 121.054L124.24 128.436C123.545 128.72 123.399 129.64 123.972 130.125L140.084 143.755Z" fill="#C8ABDB"/>
<path d="M139.065 140.799C139.687 141.355 140.675 140.951 140.73 140.119L142.241 117.125C142.29 116.388 141.549 115.854 140.865 116.134L122.18 123.764C121.495 124.043 121.34 124.942 121.891 125.435L139.065 140.799Z" fill="#B289CD"/>
<path d="M40.8453 151.854C40.2259 152.393 39.2559 151.997 39.1914 151.178L37.7633 133.058C37.7048 132.316 38.449 131.772 39.1383 132.054L54.2698 138.233C54.9591 138.514 55.1101 139.423 54.5488 139.912L40.8453 151.854Z" fill="#FCB7B3"/>
<path d="M41.9357 148.874C41.3144 149.429 40.3258 149.026 40.2711 148.194L38.7598 125.2C38.7114 124.462 39.4517 123.929 40.1357 124.208L58.8216 131.838C59.5056 132.118 59.661 133.017 59.1103 133.509L41.9357 148.874Z" fill="#FB9A94"/>
</svg>
